<?xml version="1.0" standalone="no"?>
<!DOCTYPE svg PUBLIC "-//W3C//DTD SVG 20010904//EN"
 "http://www.w3.org/TR/2001/REC-SVG-20010904/DTD/svg10.dtd">
<svg version="1.0" xmlns="http://www.w3.org/2000/svg"
 width="300.000000pt" height="217.000000pt" viewBox="0 0 300.000000 217.000000"
 preserveAspectRatio="xMidYMid meet">
<metadata>
Created by potrace 1.10, written by Peter Selinger 2001-2011
</metadata>
<g transform="translate(0.000000,217.000000) scale(0.050000,-0.050000)"
fill="#000000" stroke="none">
<path d="M2940 4214 c0 -14 25 -40 55 -59 30 -18 136 -110 235 -205 193 -184
194 -180 -34 -128 -114 26 -138 22 -236 -41 -49 -31 -262 -115 -384 -152 -155
-46 -165 -62 -205 -349 -19 -137 -43 -271 -53 -296 -10 -26 -13 -56 -7 -66 7
-10 4 -17 -6 -13 -10 3 -75 -69 -143 -159 -401 -531 -1068 -974 -1703 -1132
-212 -52 -216 -61 -54 -111 225 -69 707 -71 884 -3 30 11 51 13 47 5 -4 -8
-46 -91 -92 -185 -86 -173 -130 -343 -153 -587 -15 -159 9 -163 60 -8 77 234
238 503 430 715 42 47 58 57 49 30 -29 -91 -69 -283 -68 -330 1 -27 14 9 28
80 48 241 185 515 336 675 34 35 56 70 50 76 -7 6 -47 -30 -89 -81 -42 -51
-129 -148 -194 -215 -64 -66 -179 -205 -256 -308 -154 -205 -189 -229 -168
-112 33 174 149 345 423 620 145 146 258 265 250 265 -24 0 -275 -224 -352
-314 -128 -150 -474 -287 -626 -247 -32 8 59 85 164 139 73 37 132 80 132 95
0 35 7 37 -152 -36 -155 -70 -368 -144 -381 -131 -4 4 39 30 97 56 588 269
1068 635 1365 1043 54 74 102 131 106 127 31 -31 -136 -549 -209 -647 -26 -36
-40 -65 -30 -65 27 0 344 335 344 364 0 14 -6 17 -16 5 -9 -10 -60 -71 -113
-134 -118 -142 -122 -139 -59 35 69 189 121 423 176 785 53 353 45 338 248
407 85 29 208 73 274 98 126 48 366 65 476 34 l56 -15 -30 57 c-24 47 -151
170 -382 369 -58 50 227 -87 313 -151 56 -41 117 -163 117 -234 0 -28 35 -57
121 -100 311 -158 455 -404 427 -730 -15 -168 -73 -369 -85 -290 -3 28 -20 65
-36 83 -40 45 -17 249 30 277 18 10 23 19 10 19 -15 1 -19 41 -12 129 8 102 3
137 -25 175 -28 38 -32 39 -19 7 34 -88 29 -191 -21 -430 -58 -280 -84 -449
-45 -292 29 114 67 140 87 60 17 -68 -47 -199 -96 -195 -26 1 -40 -35 -65
-175 -36 -194 -83 -345 -148 -473 -78 -153 -95 -123 -46 85 13 55 36 196 51
314 21 158 39 229 70 268 65 82 50 105 -18 27 l-60 -69 40 90 c21 50 39 104
39 120 0 17 -22 -23 -49 -88 -26 -65 -43 -128 -36 -138 7 -11 3 -15 -8 -8 -11
7 -41 -9 -67 -37 -52 -55 -31 -65 37 -18 55 39 66 -26 12 -80 -66 -66 -354
-171 -468 -171 -135 0 -399 229 -400 346 -1 36 -4 38 -20 14 -16 -24 -19 -21
-20 15 0 56 32 58 61 3 38 -72 45 -24 10 76 -18 53 -38 164 -45 248 l-11 152
110 74 c106 70 230 203 209 224 -5 6 -29 -17 -53 -51 -46 -64 -221 -208 -236
-193 -10 10 67 163 120 238 22 31 34 61 28 67 -6 6 -38 -33 -71 -86 -78 -123
-78 -77 -2 102 66 154 66 201 0 71 -100 -196 -146 -532 -101 -729 11 -44 15
-83 11 -87 -7 -8 -34 81 -62 206 l-13 60 -18 -60 c-68 -229 -60 -518 23 -834
43 -167 39 -188 -19 -93 -116 188 -161 927 -78 1287 32 135 31 186 0 134 -41
-65 -106 -739 -80 -832 19 -70 11 -85 -173 -342 -503 -702 -630 -973 -636
-1355 -3 -214 -26 -164 -52 115 l-16 180 -3 -151 c-5 -268 175 -859 282 -927
53 -33 56 -9 22 169 -32 172 -28 456 9 589 15 54 18 48 28 -60 7 -66 30 -173
51 -237 35 -102 38 -138 21 -287 -10 -94 -14 -174 -9 -180 5 -5 16 52 23 127
7 76 22 191 33 257 42 263 58 377 117 810 91 678 98 717 141 801 115 227 292
107 250 -170 -14 -96 -67 -140 -85 -71 -6 22 -19 40 -28 40 -27 0 -22 -24 22
-95 22 -36 32 -65 23 -65 -9 0 -16 -29 -15 -65 0 -36 -15 -159 -35 -275 -98
-591 -114 -713 -129 -990 -9 -165 -13 -304 -10 -308 20 -28 30 51 47 371 11
196 32 411 47 477 16 66 29 123 30 127 1 5 15 -3 31 -16 16 -13 50 -22 75 -20
25 3 60 -1 76 -7 17 -7 68 -16 115 -20 46 -4 91 -13 98 -20 8 -8 52 -14 99
-14 47 0 92 -10 99 -22 8 -12 38 -17 69 -11 30 6 65 0 78 -13 17 -17 32 -17
62 2 148 92 202 3 123 -198 -86 -217 -99 -288 -46 -255 95 59 162 -8 215 -218
5 -17 49 -25 132 -25 161 0 416 -45 555 -98 122 -46 166 -41 52 6 -51 22 -69
39 -58 57 9 14 43 70 76 126 l61 100 -12 244 c-8 162 -22 258 -42 289 -27 42
-24 58 44 204 l73 159 24 -117 c33 -166 27 -377 -16 -540 -20 -77 -34 -143
-30 -147 20 -22 77 235 87 396 l12 190 63 -120 c67 -126 187 -487 187 -562 0
-93 40 -68 43 27 9 260 -23 522 -86 703 -20 60 -37 114 -37 119 0 6 57 -44
126 -111 289 -277 579 -407 939 -420 325 -13 341 -1 145 101 -688 360 -1186
1056 -1685 2354 -229 596 -317 710 -480 623 -60 -32 -165 13 -165 70 0 144
-97 248 -336 360 -211 98 -204 96 -204 61z m911 -580 c64 -68 77 -98 320 -714
449 -1140 923 -1791 1582 -2172 l157 -91 -230 8 c-337 12 -614 140 -945 436
-142 126 -300 342 -283 386 18 47 -50 357 -87 399 -50 55 -109 36 -115 -36 -3
-33 -10 -100 -17 -150 -8 -63 -6 -75 6 -40 9 28 18 70 19 94 1 24 11 68 23 98
30 78 63 35 40 -53 -27 -107 -43 -236 -23 -189 9 22 23 83 30 135 8 52 23 99
33 106 24 14 25 -62 2 -141 -9 -33 -10 -78 -1 -100 11 -29 16 -16 18 50 2 79
5 84 22 42 47 -118 4 -346 -94 -497 -16 -25 -23 -45 -17 -45 16 0 -159 -325
-235 -436 -89 -129 -140 -104 -341 165 -146 196 -280 456 -272 528 3 29 -2 65
-11 80 -11 17 -8 33 8 43 14 8 19 32 12 54 -8 26 2 52 30 78 23 21 65 77 94
126 60 102 55 107 134 -168 65 -224 103 -325 163 -427 l52 -89 -42 -32 c-43
-33 -113 -178 -95 -197 6 -5 25 27 43 73 19 45 59 101 91 124 32 22 81 81 110
130 43 74 58 85 82 65 16 -13 5 20 -24 74 -56 105 -57 159 -6 294 46 119 62
114 50 -15 l-12 -120 59 170 60 170 -58 170 c-56 164 -66 202 -93 365 -6 41
-20 75 -29 75 -29 0 61 -370 126 -523 27 -62 28 -85 6 -160 -23 -78 -27 -82
-41 -41 -21 64 -60 44 -73 -38 -11 -66 -51 -158 -69 -158 -37 0 -125 293 -180
595 -19 102 -43 185 -54 185 -41 0 7 104 88 190 286 304 221 820 -140 1105
-81 64 -96 84 -69 92 65 17 135 -8 196 -73z m-1011 -1414 c0 -19 -100 -46
-115 -32 -5 6 -4 33 3 61 13 50 112 24 112 -29z m30 -100 c-8 -38 -5 -60 8
-60 12 0 22 27 22 60 0 71 -7 70 90 20 56 -29 98 -37 148 -27 59 11 67 8 55
-22 -30 -77 -38 -137 -19 -124 12 7 26 40 33 74 8 38 23 59 38 54 43 -15 30
-406 -15 -455 -44 -49 -70 -51 -70 -7 0 26 -16 30 -90 22 -67 -8 -90 -3 -90
17 0 47 -102 59 -135 16 -27 -37 -28 -37 -22 1 5 30 -7 42 -53 50 -151 28 -81
441 75 441 32 0 36 -10 25 -60z m501 5 c-18 -71 -20 -72 -69 -46 -51 27 -55
75 -7 87 80 21 90 16 76 -41z m-662 -40 c-15 -41 -28 -93 -28 -114 -2 -72 -38
-3 -41 79 -5 111 -6 110 48 110 46 0 47 -2 21 -75z m666 -58 c48 -13 62 -153
32 -334 -26 -158 -139 -98 -118 62 6 52 13 138 15 190 1 52 8 95 14 95 7 0 32
-6 57 -13z m145 -65 c0 -25 -82 -288 -87 -279 -26 44 15 297 49 297 21 0 38
-8 38 -18z m-881 -192 c0 -11 -7 -32 -17 -47 -32 -51 -104 44 -89 118 l13 63
46 -57 c26 -31 47 -66 47 -77z m-38 -90 c22 0 39 9 39 20 0 10 36 17 80 15 61
-4 80 -13 80 -40 0 -43 38 -46 68 -4 29 39 99 17 83 -25 -9 -25 6 -27 89 -16
84 12 100 9 100 -18 0 -19 17 -32 40 -32 22 0 40 9 40 20 0 11 18 20 40 20 22
0 40 -10 40 -22 0 -15 22 -19 59 -11 65 13 101 -15 48 -36 -26 -9 -28 -18 -10
-36 35 -35 28 -49 -26 -60 -28 -5 -53 1 -58 15 -9 22 -41 25 -133 11 -42 -7
98 -45 166 -46 l55 -1 -3 -232 c-5 -400 72 -688 245 -916 l99 -131 -116 14
c-138 18 -116 1 -160 121 -33 88 -47 103 -120 126 l-83 27 27 83 c15 46 43
127 62 180 26 75 29 107 11 144 -15 35 -15 66 0 110 12 34 18 66 13 71 -5 5
-20 -26 -33 -70 -20 -67 -32 -79 -79 -79 -29 0 -105 -4 -168 -10 -81 -7 -119
-2 -136 18 -13 15 -36 23 -52 17 -82 -32 -128 10 -131 118 -1 58 -6 83 -10 55
-24 -148 -21 -145 -123 -132 -52 7 -117 15 -146 17 -126 12 -129 30 -66 408
l31 182 72 12 c40 6 82 5 94 -4 11 -9 52 -18 90 -20 37 -2 78 -11 90 -19 11
-9 54 -14 95 -13 82 4 102 -22 86 -108 -8 -38 -3 -34 17 17 25 65 93 110 93
61 0 -33 34 -25 49 13 7 19 -1 47 -19 65 -29 28 -31 28 -20 -1 15 -39 -91 -69
-114 -32 -7 12 -50 20 -95 17 -44 -2 -81 3 -81 11 0 30 -201 67 -243 44 -60
-32 -109 -6 -106 56 3 58 74 103 85 53 4 -15 24 -27 45 -27z m1916 -386 c83
-145 161 -428 181 -654 19 -224 -1 -275 -38 -96 -32 160 -134 410 -188 464
-79 77 -113 223 -76 323 37 102 43 100 121 -37z m-777 -505 c0 -43 133 -356
198 -466 83 -141 71 -183 -50 -183 -83 0 -92 5 -117 65 -77 183 -128 736 -60
646 16 -21 29 -49 29 -62z"/>
<path d="M4281 1439 c-33 -47 -60 -95 -60 -107 1 -12 12 -5 25 16 13 20 45 64
71 96 27 32 43 63 37 69 -6 6 -39 -27 -73 -74z"/>
<path d="M2768 1964 c7 -12 45 -28 83 -35 38 -8 74 -22 80 -31 15 -23 49 -23
49 0 0 19 -77 53 -168 74 -40 10 -54 7 -44 -8z"/>
<path d="M3122 1898 c-26 -10 -44 -23 -39 -28 15 -15 157 14 157 33 0 22 -57
20 -118 -5z"/>
<path d="M2918 1350 c-7 -77 -9 -144 -5 -148 20 -25 28 28 23 151 l-6 137 -12
-140z"/>
<path d="M3192 960 c-29 -44 -46 -80 -37 -80 22 1 131 160 109 160 -10 0 -43
-36 -72 -80z"/>
<path d="M3110 3559 c-134 -86 -144 -380 -20 -620 48 -92 47 -71 -5 84 -89
265 -67 449 61 526 46 28 71 50 54 49 -16 0 -57 -18 -90 -39z"/>
<path d="M3173 3400 c-9 -44 -4 -111 15 -180 18 -68 22 -117 11 -129 -23 -23
-25 -211 -3 -246 16 -24 115 17 214 89 40 29 40 30 -2 17 -86 -25 -94 35 -21
145 l68 101 14 -100 c7 -55 30 -144 52 -199 40 -102 38 -109 -17 -81 -50 26
-201 47 -164 23 26 -17 25 -19 -4 -20 -18 0 -40 -10 -48 -23 -10 -16 -1 -20
28 -12 40 10 41 8 12 -36 -43 -65 -30 -157 23 -165 76 -11 115 127 54 188 -33
33 -32 34 25 20 86 -21 133 -70 118 -120 -12 -40 -10 -40 23 -8 28 27 32 45
16 80 -11 25 -18 64 -17 86 11 149 7 146 70 40 33 -55 59 -89 60 -76 0 13 -22
56 -49 96 -26 39 -54 98 -61 131 -19 87 -50 72 -51 -26 -3 -158 -42 -3 -45
180 -3 141 -34 249 -34 119 0 -25 -31 -95 -69 -155 l-68 -109 -25 60 c-13 33
-25 125 -26 204 -1 79 -8 129 -16 110 -23 -58 -17 -173 14 -276 39 -128 37
-134 -15 -38 -27 51 -47 135 -55 230 -10 130 -14 141 -27 80z m73 -474 l-36
-55 -6 77 c-10 116 12 156 48 87 26 -49 25 -60 -6 -109z m88 3 c7 -21 -72 -77
-88 -62 -5 5 1 29 14 53 22 41 61 46 74 9z"/>
<path d="M3693 3325 c9 -19 16 -127 16 -240 -2 -248 0 -251 30 -40 22 158 -3
315 -51 315 -7 0 -5 -16 5 -35z"/>
<path d="M2941 3038 c12 -22 17 -54 11 -71 -7 -18 -3 -24 11 -15 14 8 18 5 10
-7 -7 -11 10 -35 37 -53 63 -41 63 -32 0 60 -27 40 -50 86 -50 101 0 15 -9 27
-21 27 -13 0 -13 -14 2 -42z"/>
<path d="M2747 2952 c-53 -46 -54 -46 -21 -124 l33 -78 -3 71 c-6 131 72 160
182 67 71 -59 85 -36 17 27 -83 78 -147 90 -208 37z"/>
<path d="M2864 2876 c-35 -35 -31 -169 6 -183 47 -18 101 78 78 142 -21 61
-50 75 -84 41z"/>
<path d="M3930 2880 c-30 -49 -33 -127 -3 -103 15 13 28 46 28 73 0 54 -6 61
-25 30z"/>
<path d="M2900 2404 c0 -52 40 -84 105 -84 32 0 73 -8 91 -18 39 -20 124 6
124 38 0 13 -15 11 -40 -5 -31 -19 -49 -19 -78 -1 -20 13 -56 18 -80 12 -51
-13 -104 26 -89 65 6 16 1 29 -11 29 -12 0 -22 -16 -22 -36z"/>
<path d="M2645 785 c-60 -140 -71 -185 -46 -185 11 0 21 16 21 35 0 19 22 82
49 140 27 58 42 105 33 105 -10 0 -35 -43 -57 -95z"/>
<path d="M3075 820 c-6 -16 -20 -66 -31 -110 -10 -44 -26 -97 -35 -118 -11
-26 -9 -34 6 -25 30 19 90 205 80 248 -7 29 -11 30 -20 5z"/>
<path d="M2360 323 c0 -10 36 -59 81 -109 l81 -92 -71 -13 c-39 -8 -77 -22
-83 -33 -7 -11 18 -13 65 -4 120 23 194 16 297 -30 52 -23 105 -41 118 -40 33
2 -212 118 -250 118 -35 0 -198 165 -198 200 0 11 -9 20 -20 20 -11 0 -20 -8
-20 -17z"/>
<path d="M3109 237 c-21 -46 -63 -118 -94 -160 -35 -49 -46 -77 -29 -77 14 0
65 72 112 160 46 88 77 160 66 160 -10 0 -35 -37 -55 -83z"/>
<path d="M3295 89 c-52 -28 -95 -57 -95 -67 0 -9 42 5 93 31 52 26 106 47 120
47 15 0 27 9 27 20 0 31 -42 22 -145 -31z"/>
</g>
</svg>
